<svg width="13" height="12" viewBox="0 0 13 12" fill="none" xmlns="http://www.w3.org/2000/svg">
<path d="M2.34174 7.68749L2.34165 7.68738C1.44523 6.55799 0.930488 5.34574 0.789826 4.27186C0.648804 3.19523 0.886187 2.31691 1.40594 1.73889L1.40597 1.73886C1.94752 1.13655 2.71022 0.782481 3.57145 0.753199L3.57286 0.753149C4.4127 0.723016 5.27322 1.01384 6.03782 1.61325L6.50054 1.97599L6.96326 1.61325C7.73138 1.01109 8.5873 0.717081 9.42166 0.752939L9.42166 0.75297L9.42837 0.753198C10.2894 0.782475 11.0523 1.13644 11.5946 1.73841C12.114 2.3164 12.3512 3.19481 12.2102 4.27148C12.0695 5.34551 11.5549 6.55776 10.6588 7.68678C10.2568 8.19308 9.53844 8.88431 8.72998 9.55414C7.94647 10.2033 7.12681 10.7923 6.49966 11.1443C5.87239 10.7922 5.05307 10.2036 4.27 9.55476C3.4615 8.88489 2.74335 8.19368 2.34174 7.68749Z" stroke="#C7C7C7" stroke-width="1.5"/>
</svg>
